<svg id="svg" version="1.1" xmlns="http://www.w3.org/2000/svg" xmlns:xlink="http://www.w3.org/1999/xlink" width="754" height="754" viewBox="0, 0, 754, 754" preserveAspectRatio="xMidYMid meet"><g id="svgg"><path id="path0" d="M183.400 69.272 C 178.034 69.946,171.388 71.047,169.000 71.657 C 168.120 71.882,166.725 72.231,165.900 72.433 C 163.052 73.130,160.997 73.692,160.200 73.993 C 159.760 74.159,158.140 74.688,156.600 75.168 C 155.060 75.648,153.395 76.212,152.900 76.421 C 151.397 77.054,150.284 77.494,148.400 78.199 C 142.953 80.237,129.642 86.903,126.338 89.247 C 125.754 89.661,125.079 90.000,124.838 90.000 C 124.597 90.000,124.400 90.150,124.400 90.332 C 124.400 90.515,123.908 90.920,123.306 91.232 C 122.704 91.545,121.939 92.015,121.606 92.278 C 121.273 92.540,119.830 93.616,118.400 94.668 C 115.386 96.886,109.238 102.762,108.293 104.328 C 107.937 104.917,107.220 105.850,106.700 106.400 C 105.460 107.711,101.134 114.208,100.297 116.017 C 95.330 126.748,104.093 127.862,122.365 118.821 C 131.565 114.269,137.863 111.291,140.200 110.390 C 140.640 110.220,141.630 109.808,142.400 109.475 C 144.462 108.581,148.172 107.274,151.800 106.163 C 153.560 105.625,155.540 105.014,156.200 104.807 C 176.389 98.462,211.850 100.128,225.289 108.052 C 226.359 108.684,227.327 109.200,227.440 109.200 C 229.515 109.200,241.589 120.713,241.598 122.700 C 241.599 122.975,241.747 123.200,241.927 123.200 C 242.443 123.200,245.516 129.952,246.206 132.600 C 248.842 142.728,248.781 156.997,246.047 170.061 C 243.202 183.658,236.199 194.913,226.494 201.488 C 221.072 205.161,218.603 206.195,210.000 208.394 C 209.010 208.647,207.647 209.022,206.972 209.227 C 206.296 209.432,205.409 209.600,205.000 209.600 C 204.591 209.600,203.704 209.768,203.028 209.973 C 202.353 210.177,200.540 210.550,199.000 210.801 C 182.652 213.464,180.400 214.567,180.400 219.909 C 180.400 229.040,193.492 234.411,215.716 234.397 C 221.700 234.393,231.231 233.420,235.200 232.408 C 235.970 232.211,237.500 231.836,238.600 231.573 C 243.432 230.419,247.056 229.054,253.000 226.150 C 263.158 221.186,272.628 213.725,279.595 205.197 C 280.581 203.989,281.489 202.910,281.611 202.800 C 284.266 200.407,292.007 187.892,294.600 181.800 C 296.315 177.772,296.673 176.847,297.229 175.000 C 297.495 174.120,297.861 172.950,298.044 172.400 C 299.195 168.938,300.254 163.861,301.189 157.323 C 301.701 153.739,301.728 141.278,301.229 138.367 C 301.025 137.175,300.653 134.940,300.403 133.400 C 299.413 127.319,298.381 123.690,296.194 118.600 C 288.513 100.725,274.952 87.864,253.800 78.394 C 250.825 77.062,250.509 76.943,246.600 75.678 C 235.312 72.026,229.908 70.935,214.573 69.208 C 210.262 68.723,187.400 68.770,183.400 69.272 M170.000 119.275 C 167.526 120.316,166.857 120.672,164.600 122.145 C 157.984 126.464,150.505 135.957,143.914 148.400 C 143.156 149.830,142.342 151.360,142.104 151.800 C 141.559 152.806,139.153 157.956,137.993 160.600 C 137.511 161.700,136.876 163.140,136.583 163.800 C 133.602 170.513,126.357 190.925,124.018 199.200 C 123.738 200.190,123.364 201.360,123.188 201.800 C 123.011 202.240,122.750 203.050,122.606 203.600 C 122.463 204.150,122.188 205.140,121.996 205.800 C 121.803 206.460,121.455 207.675,121.223 208.500 C 120.990 209.325,120.620 210.630,120.400 211.400 C 119.454 214.712,119.157 215.828,117.054 224.000 C 114.650 233.336,113.063 240.058,112.000 245.400 C 111.781 246.500,111.418 248.210,111.193 249.200 C 110.968 250.190,110.605 252.080,110.388 253.400 C 110.170 254.720,109.816 256.790,109.600 258.000 C 106.900 273.141,105.796 285.511,105.816 300.400 C 105.831 311.839,106.677 323.382,107.590 324.600 C 107.755 324.820,108.007 325.492,108.151 326.093 C 108.478 327.465,110.544 329.847,112.107 330.655 C 114.991 332.147,129.522 331.559,137.600 329.625 C 138.590 329.388,139.989 329.081,140.710 328.943 C 141.430 328.805,142.116 328.536,142.233 328.346 C 142.351 328.156,142.709 328.000,143.028 328.000 C 145.795 328.000,152.531 322.862,154.303 319.400 C 156.051 315.983,156.150 315.284,156.829 301.600 C 157.053 297.090,157.409 290.250,157.621 286.400 C 157.832 282.550,158.182 275.980,158.397 271.800 C 159.808 244.452,159.946 242.831,161.588 234.200 C 161.797 233.100,162.156 231.210,162.384 230.000 C 162.777 227.920,163.122 226.240,163.963 222.300 C 164.163 221.365,164.522 219.610,164.762 218.400 C 165.002 217.190,165.379 215.390,165.600 214.400 C 165.821 213.410,166.176 211.700,166.389 210.600 C 166.601 209.500,167.148 206.890,167.605 204.800 C 168.688 199.838,171.309 186.632,172.368 180.800 C 172.828 178.270,173.375 175.300,173.584 174.200 C 174.002 171.999,174.654 168.177,174.985 166.000 C 175.101 165.230,175.385 163.430,175.614 162.000 C 178.764 142.361,178.679 121.641,175.437 119.371 C 174.497 118.713,171.464 118.659,170.000 119.275 " stroke="none" fill="#fbfafa" fill-rule="evenodd"></path><path id="path1" d="M30.600 0.292 C 29.720 0.381,28.829 0.621,28.620 0.827 C 28.411 1.032,27.826 1.200,27.320 1.200 C 26.814 1.200,26.400 1.380,26.400 1.600 C 26.400 1.820,25.860 2.000,25.200 2.000 C 24.540 2.000,24.000 2.180,24.000 2.400 C 24.000 2.620,23.640 2.800,23.200 2.800 C 22.760 2.800,22.400 2.980,22.400 3.200 C 22.400 3.420,22.040 3.600,21.600 3.600 C 21.160 3.600,20.800 3.780,20.800 4.000 C 20.800 4.220,20.440 4.400,20.000 4.400 C 19.560 4.400,19.200 4.580,19.200 4.800 C 19.200 5.020,18.957 5.200,18.659 5.200 C 18.362 5.200,17.554 5.740,16.863 6.400 C 16.172 7.060,15.411 7.600,15.171 7.600 C 14.602 7.600,7.600 14.602,7.600 15.171 C 7.600 15.411,7.060 16.172,6.400 16.863 C 5.740 17.554,5.200 18.362,5.200 18.659 C 5.200 18.957,5.020 19.200,4.800 19.200 C 4.580 19.200,4.400 19.560,4.400 20.000 C 4.400 20.440,4.220 20.800,4.000 20.800 C 3.780 20.800,3.600 21.160,3.600 21.600 C 3.600 22.040,3.420 22.400,3.200 22.400 C 2.980 22.400,2.800 22.760,2.800 23.200 C 2.800 23.640,2.620 24.000,2.400 24.000 C 2.180 24.000,2.000 24.540,2.000 25.200 C 2.000 25.860,1.820 26.400,1.600 26.400 C 1.380 26.400,1.200 26.814,1.200 27.320 C 1.200 27.826,0.975 28.465,0.700 28.740 C -0.036 29.476,-0.036 370.524,0.700 371.260 C 0.975 371.535,1.200 372.174,1.200 372.680 C 1.200 373.186,1.380 373.600,1.600 373.600 C 1.820 373.600,2.000 374.140,2.000 374.800 C 2.000 375.460,2.180 376.000,2.400 376.000 C 2.620 376.000,2.800 376.360,2.800 376.800 C 2.800 377.240,2.980 377.600,3.200 377.600 C 3.420 377.600,3.600 377.960,3.600 378.400 C 3.600 378.840,3.780 379.200,4.000 379.200 C 4.220 379.200,4.400 379.560,4.400 380.000 C 4.400 380.440,4.580 380.800,4.800 380.800 C 5.020 380.800,5.200 381.043,5.200 381.341 C 5.200 381.638,5.740 382.446,6.400 383.137 C 7.060 383.828,7.600 384.583,7.600 384.815 C 7.600 385.443,13.436 391.380,14.696 392.034 C 15.296 392.345,16.311 393.095,16.952 393.700 C 17.594 394.305,18.362 394.800,18.659 394.800 C 18.957 394.800,19.200 394.980,19.200 395.200 C 19.200 395.420,19.560 395.600,20.000 395.600 C 20.440 395.600,20.800 395.780,20.800 396.000 C 20.800 396.220,21.160 396.400,21.600 396.400 C 22.040 396.400,22.400 396.580,22.400 396.800 C 22.400 397.020,22.760 397.200,23.200 397.200 C 23.640 397.200,24.000 397.380,24.000 397.600 C 24.000 397.820,24.540 398.000,25.200 398.000 C 25.860 398.000,26.400 398.180,26.400 398.400 C 26.400 398.620,26.814 398.800,27.320 398.800 C 27.826 398.800,28.465 399.025,28.740 399.300 C 29.476 400.036,370.855 400.036,371.100 399.300 C 371.192 399.025,371.792 398.800,372.433 398.800 C 373.075 398.800,373.600 398.620,373.600 398.400 C 373.600 398.180,374.140 398.000,374.800 398.000 C 375.460 398.000,376.000 397.820,376.000 397.600 C 376.000 397.380,376.360 397.200,376.800 397.200 C 377.240 397.200,377.600 397.020,377.600 396.800 C 377.600 396.580,377.960 396.400,378.400 396.400 C 378.840 396.400,379.200 396.220,379.200 396.000 C 379.200 395.780,379.560 395.600,380.000 395.600 C 380.440 395.600,380.800 395.432,380.800 395.227 C 380.800 395.022,381.166 394.738,381.613 394.596 C 382.060 394.454,382.862 393.902,383.395 393.369 C 383.928 392.836,384.597 392.398,384.882 392.395 C 385.541 392.388,392.400 385.508,392.400 384.853 C 392.400 384.584,392.836 383.928,393.369 383.395 C 393.902 382.862,394.454 382.060,394.596 381.613 C 394.738 381.166,395.022 380.800,395.227 380.800 C 395.432 380.800,395.600 380.440,395.600 380.000 C 395.600 379.560,395.780 379.200,396.000 379.200 C 396.220 379.200,396.400 378.840,396.400 378.400 C 396.400 377.960,396.580 377.600,396.800 377.600 C 397.020 377.600,397.200 377.240,397.200 376.800 C 397.200 376.360,397.380 376.000,397.600 376.000 C 397.820 376.000,398.000 375.460,398.000 374.800 C 398.000 374.140,398.180 373.600,398.400 373.600 C 398.620 373.600,398.800 373.186,398.800 372.680 C 398.800 372.174,399.025 371.535,399.300 371.260 C 399.698 370.862,399.800 336.075,399.800 200.000 C 399.800 63.925,399.698 29.138,399.300 28.740 C 399.025 28.465,398.800 27.826,398.800 27.320 C 398.800 26.814,398.620 26.400,398.400 26.400 C 398.180 26.400,398.000 25.860,398.000 25.200 C 398.000 24.540,397.820 24.000,397.600 24.000 C 397.380 24.000,397.200 23.640,397.200 23.200 C 397.200 22.760,397.020 22.400,396.800 22.400 C 396.580 22.400,396.400 22.040,396.400 21.600 C 396.400 21.160,396.220 20.800,396.000 20.800 C 395.780 20.800,395.600 20.440,395.600 20.000 C 395.600 19.560,395.420 19.200,395.200 19.200 C 394.980 19.200,394.800 18.957,394.800 18.659 C 394.800 18.362,394.305 17.594,393.700 16.952 C 393.095 16.311,392.345 15.296,392.034 14.696 C 391.380 13.436,385.443 7.600,384.815 7.600 C 384.583 7.600,383.828 7.060,383.137 6.400 C 382.446 5.740,381.638 5.200,381.341 5.200 C 381.043 5.200,380.800 5.020,380.800 4.800 C 380.800 4.580,380.440 4.400,380.000 4.400 C 379.560 4.400,379.200 4.220,379.200 4.000 C 379.200 3.780,378.840 3.600,378.400 3.600 C 377.960 3.600,377.600 3.420,377.600 3.200 C 377.600 2.980,377.240 2.800,376.800 2.800 C 376.360 2.800,376.000 2.620,376.000 2.400 C 376.000 2.180,375.460 2.000,374.800 2.000 C 374.140 2.000,373.600 1.820,373.600 1.600 C 373.600 1.380,373.186 1.200,372.680 1.200 C 372.174 1.200,371.535 0.975,371.260 0.700 C 370.785 0.225,35.255 -0.176,30.600 0.292 M214.076 68.616 C 220.873 69.187,224.501 69.672,230.600 70.822 C 234.396 71.537,236.082 71.906,237.800 72.396 C 238.680 72.648,240.030 73.001,240.800 73.181 C 242.341 73.542,246.144 74.707,247.400 75.203 C 247.840 75.377,248.830 75.739,249.600 76.007 C 253.158 77.245,257.284 79.148,262.585 81.995 C 265.653 83.642,272.388 87.834,272.800 88.353 C 272.910 88.491,273.630 89.078,274.400 89.657 C 275.170 90.236,276.250 91.105,276.800 91.589 C 277.350 92.073,278.682 93.219,279.760 94.135 C 283.280 97.125,289.828 105.221,292.331 109.676 C 292.767 110.454,293.367 111.520,293.662 112.045 C 293.958 112.570,294.290 113.090,294.401 113.200 C 294.839 113.637,297.301 119.406,298.584 123.000 C 299.816 126.453,301.569 135.588,302.039 141.000 C 303.111 153.364,300.748 169.193,296.353 179.096 C 295.939 180.028,295.601 180.928,295.603 181.096 C 295.606 181.440,291.536 189.691,291.211 190.000 C 291.095 190.110,290.740 190.650,290.422 191.200 C 282.678 204.605,267.947 219.418,257.000 224.808 C 256.340 225.133,255.710 225.491,255.600 225.605 C 255.405 225.806,254.079 226.454,249.581 228.547 C 234.137 235.733,205.144 237.161,190.000 231.481 C 182.257 228.577,177.941 222.068,180.190 216.686 C 181.427 213.725,183.772 212.803,195.200 210.785 C 199.508 210.025,204.010 209.143,207.400 208.396 C 208.500 208.154,209.987 207.856,210.704 207.734 C 211.421 207.612,212.106 207.351,212.227 207.156 C 212.348 206.960,212.842 206.797,213.324 206.794 C 216.879 206.771,227.402 200.963,231.723 196.641 C 235.821 192.540,240.405 185.476,242.457 180.100 C 242.645 179.605,242.959 178.795,243.154 178.300 C 243.349 177.805,243.728 176.590,243.996 175.600 C 244.264 174.610,244.645 173.387,244.842 172.881 C 245.039 172.376,245.200 171.467,245.200 170.861 C 245.200 170.256,245.363 169.589,245.563 169.380 C 245.763 169.171,246.019 168.100,246.133 167.000 C 246.247 165.900,246.572 163.200,246.856 161.000 C 247.412 156.683,247.548 142.138,247.060 139.200 C 246.895 138.210,246.575 136.680,246.347 135.800 C 246.120 134.920,245.748 133.480,245.521 132.600 C 244.787 129.751,242.285 124.329,241.103 123.025 C 240.716 122.598,240.400 122.077,240.400 121.868 C 240.400 120.810,234.793 115.075,230.852 112.101 C 228.550 110.364,220.954 106.400,219.929 106.400 C 219.616 106.400,219.189 106.251,218.980 106.070 C 218.771 105.888,217.790 105.507,216.800 105.224 C 215.810 104.941,214.640 104.563,214.200 104.385 C 213.413 104.066,212.787 103.917,209.200 103.195 C 197.676 100.876,179.404 100.889,166.600 103.226 C 165.280 103.467,163.390 103.812,162.400 103.993 C 160.796 104.287,156.796 105.313,152.800 106.455 C 152.030 106.676,150.992 106.955,150.494 107.076 C 149.996 107.197,149.490 107.454,149.370 107.648 C 149.251 107.841,148.724 108.000,148.200 108.000 C 147.676 108.000,147.136 108.180,147.000 108.400 C 146.864 108.620,146.401 108.800,145.971 108.800 C 145.541 108.800,144.877 108.965,144.495 109.166 C 144.113 109.368,143.170 109.799,142.400 110.124 C 137.914 112.019,133.362 114.146,122.800 119.281 C 114.388 123.371,114.333 123.395,112.300 123.974 C 111.475 124.208,110.202 124.580,109.472 124.800 C 105.723 125.929,99.791 125.051,98.812 123.222 C 96.132 118.214,109.021 99.377,119.300 93.280 C 119.905 92.921,120.400 92.486,120.400 92.314 C 120.400 92.141,120.670 92.000,121.000 92.000 C 121.330 92.000,121.600 91.855,121.600 91.677 C 121.600 90.728,139.585 81.030,146.300 78.358 C 146.795 78.161,147.695 77.796,148.300 77.546 C 148.905 77.297,149.760 76.961,150.200 76.800 C 150.640 76.639,151.450 76.312,152.000 76.074 C 152.550 75.836,154.260 75.251,155.800 74.774 C 157.340 74.298,158.913 73.749,159.295 73.554 C 159.677 73.359,160.341 73.200,160.771 73.200 C 161.201 73.200,161.652 73.040,161.773 72.844 C 161.894 72.649,162.579 72.392,163.296 72.273 C 164.013 72.155,165.410 71.854,166.400 71.605 C 171.345 70.362,178.290 69.229,185.800 68.441 C 191.239 67.870,206.312 67.963,214.076 68.616 M175.201 118.601 C 176.435 119.239,177.212 120.643,177.994 123.648 C 178.536 125.730,178.289 145.487,177.643 151.800 C 176.995 158.125,175.602 167.054,173.617 177.600 C 173.390 178.810,173.030 180.790,172.818 182.000 C 172.361 184.608,171.740 187.907,171.237 190.400 C 171.037 191.390,170.678 193.190,170.438 194.400 C 170.198 195.610,169.844 197.320,169.651 198.200 C 169.458 199.080,168.627 203.040,167.806 207.000 C 166.984 210.960,165.969 215.820,165.551 217.800 C 165.132 219.780,164.595 222.390,164.358 223.600 C 164.120 224.810,163.754 226.610,163.545 227.600 C 162.751 231.344,161.705 237.019,161.147 240.600 C 160.726 243.303,160.192 250.571,159.590 261.800 C 159.365 265.980,159.011 272.550,158.801 276.400 C 158.592 280.250,158.231 287.000,158.000 291.400 C 157.768 295.800,157.412 302.550,157.208 306.400 C 156.767 314.728,156.489 316.392,155.046 319.341 C 153.065 323.391,146.809 327.933,141.200 329.394 C 140.650 329.537,139.570 329.824,138.800 330.031 C 133.866 331.358,122.193 332.609,117.387 332.324 C 111.317 331.965,108.072 329.434,106.724 324.006 C 105.015 317.125,104.611 292.060,106.004 279.400 C 107.134 269.136,107.815 264.279,109.172 256.800 C 109.392 255.590,109.756 253.520,109.982 252.200 C 110.380 249.872,110.795 247.821,111.579 244.300 C 111.787 243.365,112.066 242.060,112.200 241.400 C 112.571 239.569,113.210 236.758,113.609 235.200 C 113.806 234.430,114.534 231.460,115.227 228.600 C 116.800 222.105,120.639 207.734,121.584 204.800 C 121.974 203.590,122.514 201.790,122.785 200.800 C 123.056 199.810,123.440 198.687,123.639 198.305 C 123.838 197.923,124.000 197.336,124.000 197.000 C 124.000 196.664,124.161 196.077,124.359 195.695 C 124.556 195.313,125.295 193.110,126.000 190.800 C 126.705 188.490,127.444 186.287,127.641 185.905 C 127.839 185.523,128.000 184.884,128.000 184.485 C 128.000 184.086,128.143 183.589,128.318 183.380 C 128.493 183.171,128.865 182.280,129.145 181.400 C 129.424 180.520,129.812 179.440,130.006 179.000 C 130.201 178.560,130.652 177.300,131.009 176.200 C 131.366 175.100,131.892 173.660,132.178 173.000 C 132.464 172.340,133.379 170.090,134.213 168.000 C 135.046 165.910,136.129 163.300,136.619 162.200 C 137.109 161.100,137.906 159.300,138.389 158.200 C 139.644 155.344,142.925 148.637,143.182 148.400 C 143.302 148.290,143.777 147.480,144.238 146.600 C 148.470 138.525,152.723 132.512,157.982 127.171 C 163.070 122.003,166.934 119.405,170.800 118.552 C 173.734 117.905,173.859 117.907,175.201 118.601 " stroke="none" fill="#ac0404" fill-rule="evenodd"></path><path id="path2" d="M190.713 68.295 C 191.876 68.376,193.676 68.376,194.713 68.293 C 195.751 68.211,194.800 68.145,192.600 68.146 C 190.400 68.147,189.551 68.214,190.713 68.295 M199.633 68.145 C 199.725 68.225,203.040 68.379,207.000 68.488 C 211.101 68.601,212.909 68.561,211.200 68.395 C 208.021 68.087,199.351 67.900,199.633 68.145 M185.705 68.687 C 186.314 68.779,187.214 68.777,187.705 68.682 C 188.197 68.587,187.700 68.511,186.600 68.514 C 185.500 68.517,185.097 68.595,185.705 68.687 M180.900 69.076 C 181.285 69.176,181.915 69.176,182.300 69.076 C 182.685 68.975,182.370 68.893,181.600 68.893 C 180.830 68.893,180.515 68.975,180.900 69.076 M177.905 69.483 C 178.402 69.579,179.122 69.575,179.505 69.475 C 179.887 69.375,179.480 69.296,178.600 69.301 C 177.720 69.305,177.407 69.387,177.905 69.483 M219.900 69.482 C 220.395 69.578,221.205 69.578,221.700 69.482 C 222.195 69.387,221.790 69.309,220.800 69.309 C 219.810 69.309,219.405 69.387,219.900 69.482 M173.300 70.276 C 173.685 70.376,174.315 70.376,174.700 70.276 C 175.085 70.175,174.770 70.093,174.000 70.093 C 173.230 70.093,172.915 70.175,173.300 70.276 M225.700 70.276 C 226.085 70.376,226.715 70.376,227.100 70.276 C 227.485 70.175,227.170 70.093,226.400 70.093 C 225.630 70.093,225.315 70.175,225.700 70.276 M168.000 71.206 C 167.578 71.482,167.815 71.523,168.800 71.342 C 170.525 71.025,170.851 70.798,169.567 70.806 C 169.035 70.809,168.330 70.989,168.000 71.206 M164.800 72.006 C 164.378 72.282,164.615 72.323,165.600 72.142 C 167.325 71.825,167.651 71.598,166.367 71.606 C 165.835 71.609,165.130 71.789,164.800 72.006 M234.033 71.743 C 234.125 71.821,234.830 72.001,235.600 72.142 C 236.585 72.323,236.822 72.282,236.400 72.006 C 235.858 71.650,233.637 71.403,234.033 71.743 M161.845 72.728 C 161.733 72.908,162.173 72.977,162.821 72.882 C 163.470 72.787,164.000 72.640,164.000 72.555 C 164.000 72.250,162.043 72.407,161.845 72.728 M237.233 72.544 C 237.325 72.623,237.940 72.808,238.600 72.956 C 239.476 73.152,239.638 73.115,239.200 72.818 C 238.660 72.453,236.832 72.198,237.233 72.544 M240.433 73.344 C 240.525 73.423,241.140 73.608,241.800 73.756 C 242.676 73.952,242.838 73.915,242.400 73.618 C 241.860 73.253,240.032 72.998,240.433 73.344 M264.000 82.979 C 264.000 83.089,264.540 83.459,265.200 83.800 C 265.860 84.141,266.400 84.331,266.400 84.221 C 266.400 84.111,265.860 83.741,265.200 83.400 C 264.540 83.059,264.000 82.869,264.000 82.979 M268.000 85.297 C 268.000 85.550,272.305 88.400,272.687 88.400 C 272.964 88.400,271.792 87.556,269.100 85.818 C 268.495 85.428,268.000 85.193,268.000 85.297 M274.573 90.200 C 276.957 92.020,277.445 92.023,275.156 90.204 C 274.190 89.436,273.251 88.806,273.069 88.804 C 272.888 88.802,273.564 89.430,274.573 90.200 M123.200 90.400 C 122.210 91.058,121.539 91.597,121.709 91.598 C 122.057 91.600,125.200 89.574,125.200 89.347 C 125.200 89.092,125.042 89.175,123.200 90.400 M278.171 93.097 C 278.815 93.809,279.430 94.304,279.538 94.196 C 279.645 94.088,279.658 93.955,279.567 93.900 C 279.475 93.845,278.860 93.351,278.200 92.801 L 277.000 91.803 278.171 93.097 M281.583 96.100 C 282.564 97.145,283.419 98.000,283.483 98.000 C 283.784 98.000,283.466 97.641,281.700 95.983 L 279.800 94.200 281.583 96.100 M111.391 100.100 L 108.200 103.400 111.500 100.209 C 114.565 97.246,114.982 96.800,114.691 96.800 C 114.630 96.800,113.145 98.285,111.391 100.100 M283.600 98.525 C 283.600 98.594,284.185 99.179,284.900 99.825 L 286.200 101.000 285.025 99.700 C 283.930 98.488,283.600 98.216,283.600 98.525 M187.500 101.089 C 188.215 101.178,189.385 101.178,190.100 101.089 C 190.815 101.001,190.230 100.928,188.800 100.928 C 187.370 100.928,186.785 101.001,187.500 101.089 M181.700 101.491 C 182.525 101.578,183.875 101.578,184.700 101.491 C 185.525 101.405,184.850 101.334,183.200 101.334 C 181.550 101.334,180.875 101.405,181.700 101.491 M192.900 101.491 C 193.725 101.578,195.075 101.578,195.900 101.491 C 196.725 101.405,196.050 101.334,194.400 101.334 C 192.750 101.334,192.075 101.405,192.900 101.491 M175.500 101.882 C 175.995 101.978,176.805 101.978,177.300 101.882 C 177.795 101.787,177.390 101.709,176.400 101.709 C 175.410 101.709,175.005 101.787,175.500 101.882 M199.700 101.887 C 200.305 101.978,201.295 101.978,201.900 101.887 C 202.505 101.795,202.010 101.720,200.800 101.720 C 199.590 101.720,199.095 101.795,199.700 101.887 M172.500 102.276 C 172.885 102.376,173.515 102.376,173.900 102.276 C 174.285 102.175,173.970 102.093,173.200 102.093 C 172.430 102.093,172.115 102.175,172.500 102.276 M287.591 103.188 C 288.057 103.841,288.642 104.502,288.891 104.656 C 289.141 104.811,288.841 104.276,288.225 103.468 C 286.888 101.715,286.384 101.492,287.591 103.188 M167.400 102.800 L 166.600 103.144 167.400 103.144 C 167.840 103.144,168.560 102.989,169.000 102.800 L 169.800 102.456 169.000 102.456 C 168.560 102.456,167.840 102.611,167.400 102.800 M207.200 102.800 C 208.568 103.238,209.619 103.238,208.600 102.800 C 208.160 102.611,207.440 102.462,207.000 102.468 C 206.357 102.477,206.396 102.543,207.200 102.800 M163.200 103.600 C 162.396 103.857,162.357 103.923,163.000 103.932 C 163.440 103.938,164.160 103.789,164.600 103.600 C 165.619 103.162,164.568 103.162,163.200 103.600 M105.301 107.100 C 104.071 108.681,103.182 110.110,103.870 109.400 C 104.670 108.575,106.859 105.600,106.667 105.600 C 106.557 105.600,105.942 106.275,105.301 107.100 M231.800 112.669 C 233.665 114.527,236.429 116.791,235.200 115.453 C 234.430 114.616,233.260 113.557,232.600 113.100 C 231.940 112.644,231.580 112.450,231.800 112.669 M100.600 114.000 C 100.259 114.660,100.069 115.200,100.179 115.200 C 100.289 115.200,100.659 114.660,101.000 114.000 C 101.341 113.340,101.531 112.800,101.421 112.800 C 101.311 112.800,100.941 113.340,100.600 114.000 M131.400 114.773 C 129.200 115.855,127.517 116.753,127.659 116.770 C 128.013 116.811,135.600 113.179,135.600 112.968 C 135.600 112.707,135.635 112.692,131.400 114.773 M296.207 117.879 C 296.807 119.314,297.200 119.962,297.200 119.516 C 297.200 119.084,295.985 116.400,295.789 116.400 C 295.679 116.400,295.867 117.066,296.207 117.879 M125.200 117.800 C 124.210 118.330,123.542 118.772,123.716 118.782 C 124.141 118.806,127.200 117.234,127.200 116.992 C 127.200 116.727,127.217 116.720,125.200 117.800 M171.600 118.397 C 170.478 118.630,170.688 118.680,172.659 118.644 C 174.012 118.620,174.912 118.468,174.659 118.306 C 174.134 117.970,173.569 117.987,171.600 118.397 M240.425 121.800 C 240.425 122.020,240.690 122.549,241.013 122.976 C 241.336 123.404,241.600 123.573,241.600 123.353 C 241.600 123.133,241.336 122.604,241.013 122.176 C 240.690 121.749,240.425 121.580,240.425 121.800 M177.888 125.200 C 178.011 126.410,178.177 127.475,178.256 127.567 C 178.553 127.911,178.330 124.567,178.004 123.800 C 177.792 123.302,177.749 123.831,177.888 125.200 M298.422 123.400 C 298.416 123.620,298.671 124.520,298.988 125.400 C 299.305 126.280,299.573 126.706,299.582 126.346 C 299.592 125.986,299.337 125.086,299.016 124.346 C 298.694 123.606,298.427 123.180,298.422 123.400 M158.786 126.300 L 156.600 128.600 158.900 126.414 C 161.037 124.382,161.383 124.000,161.086 124.000 C 161.024 124.000,159.989 125.035,158.786 126.300 M100.800 124.794 C 101.130 125.011,101.835 125.191,102.367 125.194 C 103.651 125.202,103.325 124.975,101.600 124.658 C 100.615 124.477,100.378 124.518,100.800 124.794 M107.400 124.800 L 105.800 125.086 107.200 125.137 C 107.970 125.165,108.870 125.013,109.200 124.800 C 109.855 124.377,109.762 124.377,107.400 124.800 M154.138 131.300 C 151.633 134.427,148.652 138.684,148.045 140.000 C 147.655 140.845,147.662 140.884,148.092 140.249 C 149.542 138.107,154.523 131.230,155.444 130.100 C 156.026 129.385,156.421 128.800,156.321 128.800 C 156.221 128.800,155.239 129.925,154.138 131.300 M300.068 129.800 C 300.062 130.240,300.211 130.960,300.400 131.400 C 300.838 132.419,300.838 131.368,300.400 130.000 C 300.143 129.196,300.077 129.157,300.068 129.800 M300.893 133.800 C 300.894 134.460,301.032 135.540,301.200 136.200 C 301.623 137.863,301.642 136.226,301.223 134.200 C 300.945 132.855,300.892 132.791,300.893 133.800 M246.012 134.800 C 246.012 135.130,246.187 135.670,246.400 136.000 C 246.745 136.533,246.788 136.533,246.788 136.000 C 246.788 135.670,246.613 135.130,246.400 134.800 C 246.055 134.267,246.012 134.267,246.012 134.800 M178.084 140.241 C 178.038 142.244,177.916 145.034,177.813 146.441 L 177.626 149.000 178.025 146.800 C 178.245 145.590,178.367 142.800,178.296 140.600 L 178.169 136.600 178.084 140.241 M301.724 140.200 C 301.726 141.520,301.801 142.012,301.890 141.293 C 301.979 140.574,301.977 139.494,301.886 138.893 C 301.795 138.292,301.722 138.880,301.724 140.200 M246.856 139.000 C 246.856 139.440,247.011 140.160,247.200 140.600 L 247.544 141.400 247.544 140.600 C 247.544 140.160,247.389 139.440,247.200 139.000 L 246.856 138.200 246.856 139.000 M302.151 147.600 C 302.151 150.130,302.216 151.165,302.296 149.900 C 302.375 148.635,302.375 146.565,302.296 145.300 C 302.216 144.035,302.151 145.070,302.151 147.600 M247.701 148.200 C 247.705 149.080,247.787 149.393,247.883 148.895 C 247.979 148.398,247.975 147.678,247.875 147.295 C 247.775 146.913,247.696 147.320,247.701 148.200 M177.269 152.600 C 177.225 153.700,177.096 155.050,176.983 155.600 L 176.777 156.600 177.207 155.616 C 177.443 155.076,177.571 153.726,177.492 152.616 L 177.348 150.600 177.269 152.600 M301.724 155.000 C 301.726 156.320,301.801 156.812,301.890 156.093 C 301.979 155.374,301.977 154.294,301.886 153.693 C 301.795 153.092,301.722 153.680,301.724 155.000 M139.400 155.861 C 139.064 156.665,138.882 157.415,138.995 157.528 C 139.108 157.641,139.200 157.635,139.200 157.516 C 139.200 157.396,139.472 156.646,139.805 155.849 C 140.138 155.052,140.321 154.400,140.211 154.400 C 140.101 154.400,139.736 155.058,139.400 155.861 M246.990 158.938 C 246.839 160.152,246.795 161.382,246.893 161.672 C 246.990 161.962,247.201 161.056,247.360 159.658 C 247.519 158.260,247.563 157.030,247.458 156.924 C 247.352 156.819,247.142 157.725,246.990 158.938 M176.254 159.954 C 176.100 160.918,176.058 161.791,176.161 161.894 C 176.430 162.163,176.915 159.345,176.707 158.722 C 176.612 158.436,176.408 158.990,176.254 159.954 M300.893 162.000 C 300.893 162.770,300.975 163.085,301.076 162.700 C 301.176 162.315,301.176 161.685,301.076 161.300 C 300.975 160.915,300.893 161.230,300.893 162.000 M175.654 164.200 C 175.619 164.640,175.489 165.450,175.367 166.000 C 175.175 166.863,175.207 166.903,175.598 166.290 C 175.847 165.899,175.977 165.089,175.886 164.490 C 175.778 163.779,175.697 163.679,175.654 164.200 M300.200 164.800 C 300.048 165.491,300.007 166.141,300.109 166.242 C 300.211 166.344,300.409 165.853,300.550 165.150 C 300.883 163.483,300.560 163.160,300.200 164.800 M246.200 165.200 C 246.048 165.891,246.007 166.541,246.109 166.642 C 246.211 166.744,246.409 166.253,246.550 165.550 C 246.883 163.883,246.560 163.560,246.200 165.200 M174.860 169.267 C 174.827 169.854,174.696 170.664,174.570 171.067 C 174.352 171.760,174.365 171.761,174.795 171.090 C 175.046 170.699,175.177 169.889,175.086 169.290 L 174.920 168.200 174.860 169.267 M299.246 169.267 C 299.221 169.634,299.096 170.264,298.970 170.667 C 298.752 171.362,298.763 171.363,299.197 170.687 C 299.448 170.296,299.573 169.666,299.473 169.287 C 299.311 168.668,299.288 168.666,299.246 169.267 M245.467 169.467 C 245.320 169.613,245.211 170.108,245.225 170.567 C 245.249 171.333,245.282 171.323,245.634 170.442 C 246.026 169.463,245.944 168.989,245.467 169.467 M174.049 173.600 C 174.016 173.930,173.889 174.650,173.767 175.200 C 173.575 176.064,173.607 176.103,173.999 175.488 C 174.248 175.097,174.375 174.377,174.281 173.888 C 174.186 173.400,174.082 173.270,174.049 173.600 M173.050 178.850 C 172.717 180.517,173.040 180.840,173.400 179.200 C 173.552 178.509,173.593 177.859,173.491 177.758 C 173.389 177.656,173.191 178.147,173.050 178.850 M172.449 182.400 C 172.416 182.730,172.289 183.450,172.167 184.000 C 171.975 184.864,172.007 184.903,172.399 184.288 C 172.648 183.897,172.775 183.177,172.681 182.688 C 172.586 182.200,172.482 182.070,172.449 182.400 M239.400 186.400 C 239.059 187.060,238.869 187.600,238.979 187.600 C 239.089 187.600,239.459 187.060,239.800 186.400 C 240.141 185.740,240.331 185.200,240.221 185.200 C 240.111 185.200,239.741 185.740,239.400 186.400 M171.450 187.650 C 171.117 189.317,171.440 189.640,171.800 188.000 C 171.952 187.309,171.993 186.659,171.891 186.558 C 171.789 186.456,171.591 186.947,171.450 187.650 M237.453 189.591 C 236.874 190.467,236.400 191.317,236.400 191.480 C 236.400 191.644,236.642 191.423,236.939 190.989 C 238.241 189.081,238.878 188.000,238.699 188.000 C 238.593 188.000,238.032 188.716,237.453 189.591 M170.650 191.650 C 170.317 193.317,170.640 193.640,171.000 192.000 C 171.152 191.309,171.193 190.659,171.091 190.558 C 170.989 190.456,170.791 190.947,170.650 191.650 M234.208 193.900 C 233.349 194.945,233.060 195.440,233.566 195.000 C 234.461 194.222,236.198 192.000,235.912 192.000 C 235.834 192.000,235.067 192.855,234.208 193.900 M169.850 195.650 C 169.517 197.317,169.840 197.640,170.200 196.000 C 170.352 195.309,170.393 194.659,170.291 194.558 C 170.189 194.456,169.991 194.947,169.850 195.650 M286.096 197.405 C 284.932 199.203,285.200 199.200,286.573 197.400 C 287.160 196.630,287.497 196.002,287.320 196.005 C 287.144 196.008,286.593 196.638,286.096 197.405 M229.200 198.849 C 227.806 200.071,227.805 200.072,229.088 199.219 C 229.796 198.748,230.482 198.191,230.612 197.981 C 230.997 197.357,230.677 197.554,229.200 198.849 M123.467 198.267 C 123.320 198.413,123.211 198.908,123.225 199.367 C 123.249 200.133,123.282 200.123,123.634 199.242 C 124.026 198.263,123.944 197.789,123.467 198.267 M169.029 199.429 C 168.881 200.015,168.838 200.572,168.932 200.666 C 169.027 200.760,169.224 200.358,169.371 199.771 C 169.519 199.185,169.562 198.628,169.468 198.534 C 169.373 198.440,169.176 198.842,169.029 199.429 M282.046 202.742 C 280.493 204.690,278.947 206.512,278.611 206.791 C 278.275 207.070,278.000 207.471,278.000 207.682 C 278.000 207.893,278.814 207.111,279.810 205.945 C 282.379 202.936,285.287 199.200,285.062 199.200 C 284.957 199.200,283.600 200.794,282.046 202.742 M226.018 201.050 C 224.136 202.386,223.971 202.618,225.429 201.877 C 226.105 201.534,226.892 200.971,227.178 200.626 C 227.860 199.805,227.677 199.872,226.018 201.050 M122.649 201.015 C 122.512 201.373,122.415 201.966,122.434 202.333 C 122.453 202.700,122.627 202.469,122.821 201.820 C 123.198 200.558,123.065 199.933,122.649 201.015 M121.049 206.215 C 120.912 206.573,120.815 207.166,120.834 207.533 C 120.853 207.900,121.027 207.669,121.221 207.020 C 121.598 205.758,121.465 205.133,121.049 206.215 M167.400 207.200 C 167.248 207.891,167.207 208.541,167.309 208.642 C 167.411 208.744,167.609 208.253,167.750 207.550 C 168.083 205.883,167.760 205.560,167.400 207.200 M212.200 207.200 C 211.908 207.673,212.299 207.673,213.400 207.200 C 214.171 206.869,214.169 206.855,213.324 206.828 C 212.842 206.813,212.336 206.980,212.200 207.200 M209.200 208.018 C 208.762 208.315,208.924 208.352,209.800 208.156 C 211.271 207.827,211.590 207.598,210.567 207.606 C 210.145 207.609,209.530 207.795,209.200 208.018 M205.600 208.818 C 205.162 209.115,205.324 209.152,206.200 208.956 C 207.671 208.627,207.990 208.398,206.967 208.406 C 206.545 208.409,205.930 208.595,205.600 208.818 M201.600 209.600 C 200.836 210.094,201.658 210.094,203.200 209.600 L 204.200 209.280 203.200 209.246 C 202.650 209.227,201.930 209.387,201.600 209.600 M120.046 210.067 C 120.021 210.434,119.896 211.064,119.770 211.467 C 119.552 212.162,119.563 212.163,119.997 211.487 C 120.248 211.096,120.373 210.466,120.273 210.087 C 120.111 209.468,120.088 209.466,120.046 210.067 M197.400 210.419 C 196.842 210.671,197.085 210.707,198.200 210.538 C 199.080 210.404,199.875 210.228,199.967 210.147 C 200.310 209.844,198.168 210.071,197.400 210.419 M192.800 211.206 C 192.378 211.482,192.615 211.523,193.600 211.342 C 195.325 211.025,195.651 210.798,194.367 210.806 C 193.835 210.809,193.130 210.989,192.800 211.206 M188.800 212.000 C 188.005 212.514,189.004 212.514,190.200 212.000 L 191.000 211.656 190.200 211.634 C 189.760 211.622,189.130 211.787,188.800 212.000 M119.246 212.867 C 119.221 213.234,119.096 213.864,118.970 214.267 C 118.752 214.962,118.763 214.963,119.197 214.287 C 119.448 213.896,119.573 213.266,119.473 212.887 C 119.311 212.268,119.288 212.266,119.246 212.867 M183.000 213.667 C 181.817 214.321,180.400 215.679,180.400 216.159 C 180.400 216.389,180.681 216.176,181.025 215.686 C 181.369 215.195,182.314 214.443,183.125 214.014 C 183.936 213.586,184.420 213.233,184.200 213.230 C 183.980 213.227,183.440 213.423,183.000 213.667 M268.980 216.313 C 266.554 218.606,267.119 218.250,270.301 215.481 C 271.237 214.666,271.867 214.006,271.701 214.013 C 271.536 214.021,270.311 215.056,268.980 216.313 M118.229 216.629 C 118.081 217.215,118.038 217.772,118.132 217.866 C 118.227 217.960,118.424 217.558,118.571 216.971 C 118.719 216.385,118.762 215.828,118.668 215.734 C 118.573 215.640,118.376 216.042,118.229 216.629 M165.056 218.084 C 164.921 218.588,164.828 219.450,164.849 220.000 C 164.872 220.589,165.031 220.271,165.236 219.225 C 165.603 217.352,165.473 216.527,165.056 218.084 M117.646 218.867 C 117.621 219.234,117.496 219.864,117.370 220.267 C 117.152 220.962,117.163 220.963,117.597 220.287 C 117.848 219.896,117.973 219.266,117.873 218.887 C 117.711 218.268,117.688 218.266,117.646 218.867 M179.606 220.633 C 179.609 221.275,179.796 222.070,180.021 222.400 C 180.314 222.830,180.354 222.546,180.162 221.400 C 179.830 219.416,179.598 219.096,179.606 220.633 M116.629 222.629 C 116.481 223.215,116.438 223.772,116.532 223.866 C 116.627 223.960,116.824 223.558,116.971 222.971 C 117.119 222.385,117.162 221.828,117.068 221.734 C 116.973 221.640,116.776 222.042,116.629 222.629 M164.049 223.400 C 164.016 223.840,163.896 224.650,163.783 225.200 L 163.577 226.200 164.006 225.219 C 164.242 224.679,164.361 223.869,164.272 223.419 C 164.113 222.621,164.107 222.621,164.049 223.400 M115.829 225.829 C 115.681 226.415,115.638 226.972,115.732 227.066 C 115.827 227.160,116.024 226.758,116.171 226.171 C 116.319 225.585,116.362 225.028,116.268 224.934 C 116.173 224.840,115.976 225.242,115.829 225.829 M181.517 225.400 C 181.745 225.840,182.532 226.740,183.266 227.399 L 184.600 228.598 183.201 226.999 C 182.432 226.120,181.645 225.220,181.452 225.000 C 181.260 224.780,181.289 224.960,181.517 225.400 M163.260 227.267 C 163.227 227.854,163.096 228.664,162.970 229.067 C 162.752 229.760,162.765 229.761,163.195 229.090 C 163.446 228.699,163.577 227.889,163.486 227.290 L 163.320 226.200 163.260 227.267 M115.029 229.029 C 114.881 229.615,114.838 230.172,114.932 230.266 C 115.027 230.360,115.224 229.958,115.371 229.371 C 115.519 228.785,115.562 228.228,115.468 228.134 C 115.373 228.040,115.176 228.442,115.029 229.029 M162.454 231.200 C 162.419 231.750,162.296 232.650,162.183 233.200 L 161.977 234.200 162.407 233.215 C 162.643 232.674,162.765 231.774,162.678 231.215 L 162.520 230.200 162.454 231.200 M190.200 231.600 C 191.080 232.007,192.160 232.348,192.600 232.356 C 193.040 232.364,192.417 232.018,191.215 231.586 C 188.514 230.614,188.084 230.620,190.200 231.600 M114.229 232.229 C 114.081 232.815,114.038 233.372,114.132 233.466 C 114.227 233.560,114.424 233.158,114.571 232.571 C 114.719 231.985,114.762 231.428,114.668 231.334 C 114.573 231.240,114.376 231.642,114.229 232.229 M236.600 232.419 C 236.042 232.671,236.285 232.707,237.400 232.538 C 238.280 232.404,239.075 232.228,239.167 232.147 C 239.510 231.844,237.368 232.071,236.600 232.419 M198.833 233.747 C 198.925 233.828,200.170 233.993,201.600 234.115 C 203.238 234.254,203.756 234.218,203.000 234.015 C 201.778 233.689,198.530 233.480,198.833 233.747 M227.400 234.020 C 226.611 234.235,227.022 234.270,228.600 234.123 C 229.920 234.000,231.075 233.832,231.167 233.750 C 231.464 233.482,228.634 233.685,227.400 234.020 M207.700 234.694 C 208.745 234.776,210.455 234.776,211.500 234.694 C 212.545 234.612,211.690 234.544,209.600 234.544 C 207.510 234.544,206.655 234.612,207.700 234.694 M220.300 234.693 C 221.235 234.777,222.765 234.777,223.700 234.693 C 224.635 234.609,223.870 234.540,222.000 234.540 C 220.130 234.540,219.365 234.609,220.300 234.693 M113.473 235.353 C 113.323 235.745,113.211 236.366,113.225 236.733 C 113.242 237.175,113.381 237.074,113.637 236.434 C 113.849 235.903,113.961 235.282,113.885 235.054 C 113.809 234.827,113.624 234.961,113.473 235.353 M161.654 235.600 C 161.619 236.150,161.496 237.050,161.383 237.600 L 161.177 238.600 161.607 237.615 C 161.843 237.074,161.965 236.174,161.878 235.615 L 161.720 234.600 161.654 235.600 M214.700 235.089 C 215.415 235.178,216.585 235.178,217.300 235.089 C 218.015 235.001,217.430 234.928,216.000 234.928 C 214.570 234.928,213.985 235.001,214.700 235.089 M112.629 239.029 C 112.481 239.615,112.438 240.172,112.532 240.266 C 112.627 240.360,112.824 239.958,112.971 239.371 C 113.119 238.785,113.162 238.228,113.068 238.134 C 112.973 238.040,112.776 238.442,112.629 239.029 M160.859 240.600 C 160.820 241.260,160.696 242.250,160.583 242.800 L 160.377 243.800 160.808 242.814 C 161.044 242.272,161.168 241.282,161.083 240.614 L 160.928 239.400 160.859 240.600 M111.849 242.615 C 111.712 242.973,111.615 243.566,111.634 243.933 C 111.653 244.300,111.827 244.069,112.021 243.420 C 112.398 242.158,112.265 241.533,111.849 242.615 M111.073 246.153 C 110.923 246.545,110.811 247.166,110.825 247.533 C 110.842 247.975,110.981 247.874,111.237 247.234 C 111.449 246.703,111.561 246.082,111.485 245.854 C 111.409 245.627,111.224 245.761,111.073 246.153 M160.077 248.000 C 160.031 249.210,159.912 251.460,159.810 253.000 L 159.626 255.800 160.027 253.600 C 160.247 252.390,160.366 250.140,160.293 248.600 C 160.170 246.028,160.152 245.979,160.077 248.000 M110.256 250.084 C 110.121 250.588,110.027 251.360,110.046 251.800 C 110.065 252.240,110.245 251.898,110.446 251.040 C 110.836 249.378,110.670 248.540,110.256 250.084 M109.449 254.615 C 109.312 254.973,109.218 255.656,109.241 256.133 C 109.267 256.681,109.403 256.486,109.610 255.603 C 109.960 254.116,109.865 253.533,109.449 254.615 M108.649 259.015 C 108.512 259.373,108.418 260.056,108.441 260.533 C 108.467 261.081,108.603 260.886,108.810 260.003 C 109.160 258.516,109.065 257.933,108.649 259.015 M159.278 262.600 C 159.232 263.920,159.112 266.260,159.010 267.800 L 158.826 270.600 159.226 268.400 C 159.446 267.190,159.567 264.850,159.494 263.200 C 159.368 260.349,159.357 260.319,159.278 262.600 M107.856 264.084 C 107.721 264.588,107.630 265.540,107.653 266.200 C 107.681 267.028,107.797 266.784,108.026 265.413 C 108.376 263.323,108.274 262.526,107.856 264.084 M107.056 269.284 C 106.921 269.788,106.830 270.830,106.852 271.600 C 106.886 272.734,106.962 272.589,107.252 270.839 C 107.620 268.625,107.496 267.643,107.056 269.284 M158.476 277.600 C 158.431 279.030,158.313 281.460,158.214 283.000 L 158.034 285.800 158.430 283.000 C 158.647 281.460,158.765 279.030,158.691 277.600 L 158.557 275.000 158.476 277.600 M106.120 278.800 C 106.120 280.010,106.195 280.505,106.287 279.900 C 106.378 279.295,106.378 278.305,106.287 277.700 C 106.195 277.095,106.120 277.590,106.120 278.800 M105.709 283.600 C 105.709 284.590,105.787 284.995,105.882 284.500 C 105.978 284.005,105.978 283.195,105.882 282.700 C 105.787 282.205,105.709 282.610,105.709 283.600 M105.353 290.200 C 105.353 292.840,105.418 293.868,105.497 292.484 C 105.575 291.101,105.574 288.941,105.495 287.684 C 105.416 286.428,105.352 287.560,105.353 290.200 M157.489 295.556 C 157.319 298.062,157.257 300.190,157.353 300.286 C 157.630 300.563,158.078 294.776,157.933 292.800 C 157.853 291.720,157.676 292.822,157.489 295.556 M105.353 310.200 C 105.353 312.840,105.418 313.868,105.497 312.484 C 105.575 311.101,105.574 308.941,105.495 307.684 C 105.416 306.428,105.352 307.560,105.353 310.200 M156.875 307.800 C 156.830 308.900,156.707 310.790,156.603 312.000 C 156.419 314.127,156.426 314.147,156.821 312.600 C 157.046 311.720,157.169 309.830,157.094 308.400 C 156.972 306.100,156.947 306.031,156.875 307.800 M106.114 319.800 C 106.117 320.900,106.195 321.303,106.287 320.695 C 106.379 320.086,106.377 319.186,106.282 318.695 C 106.187 318.203,106.111 318.700,106.114 319.800 M154.600 319.600 C 154.259 320.260,154.069 320.800,154.179 320.800 C 154.289 320.800,154.659 320.260,155.000 319.600 C 155.341 318.940,155.531 318.400,155.421 318.400 C 155.311 318.400,154.941 318.940,154.600 319.600 M152.181 322.900 L 150.600 324.600 152.300 323.019 C 153.881 321.548,154.184 321.200,153.881 321.200 C 153.816 321.200,153.051 321.965,152.181 322.900 M148.641 325.627 C 147.783 326.272,147.250 326.800,147.456 326.800 C 147.662 326.800,148.453 326.267,149.215 325.616 C 150.987 324.102,150.661 324.108,148.641 325.627 M145.000 327.622 C 144.120 328.038,143.634 328.384,143.920 328.390 C 144.502 328.401,146.800 327.284,146.800 326.990 C 146.800 326.756,146.918 326.714,145.000 327.622 M108.817 328.600 C 109.138 329.040,109.670 329.628,110.000 329.907 C 110.683 330.484,112.413 331.484,111.800 330.948 C 111.580 330.755,110.688 329.968,109.817 329.199 C 108.947 328.430,108.497 328.160,108.817 328.600 M139.200 329.600 C 138.376 329.864,138.341 329.926,139.000 329.954 C 139.440 329.973,140.070 329.813,140.400 329.600 C 141.101 329.147,140.614 329.147,139.200 329.600 M135.800 330.400 C 134.711 330.677,134.693 330.707,135.600 330.725 C 136.150 330.735,136.960 330.589,137.400 330.400 C 138.386 329.976,137.466 329.976,135.800 330.400 M113.000 331.600 C 113.440 331.789,114.070 331.944,114.400 331.944 C 114.778 331.944,114.704 331.817,114.200 331.600 C 113.760 331.411,113.130 331.256,112.800 331.256 C 112.422 331.256,112.496 331.383,113.000 331.600 M129.305 331.487 C 129.914 331.579,130.814 331.577,131.305 331.482 C 131.797 331.387,131.300 331.311,130.200 331.314 C 129.100 331.317,128.697 331.395,129.305 331.487 M125.505 331.883 C 126.002 331.979,126.722 331.975,127.105 331.875 C 127.487 331.775,127.080 331.696,126.200 331.701 C 125.320 331.705,125.007 331.787,125.505 331.883 M117.300 332.296 C 118.565 332.375,120.635 332.375,121.900 332.296 C 123.165 332.216,122.130 332.151,119.600 332.151 C 117.070 332.151,116.035 332.216,117.300 332.296 " stroke="none" fill="#ca5b5b" fill-rule="evenodd"></path><path id="path3" d="M197.100 68.282 C 197.595 68.378,198.405 68.378,198.900 68.282 C 199.395 68.187,198.990 68.109,198.000 68.109 C 197.010 68.109,196.605 68.187,197.100 68.282 M188.900 68.676 C 189.285 68.776,189.915 68.776,190.300 68.676 C 190.685 68.575,190.370 68.493,189.600 68.493 C 188.830 68.493,188.515 68.575,188.900 68.676 M103.905 125.083 C 104.402 125.179,105.122 125.175,105.505 125.075 C 105.887 124.975,105.480 124.896,104.600 124.901 C 103.720 124.905,103.407 124.987,103.905 125.083 M178.153 132.200 C 178.153 134.840,178.218 135.868,178.297 134.484 C 178.375 133.101,178.374 130.941,178.295 129.684 C 178.216 128.428,178.152 129.560,178.153 132.200 M247.693 145.600 C 247.693 146.370,247.775 146.685,247.876 146.300 C 247.976 145.915,247.976 145.285,247.876 144.900 C 247.775 144.515,247.693 144.830,247.693 145.600 M247.714 151.400 C 247.717 152.500,247.795 152.903,247.887 152.295 C 247.979 151.686,247.977 150.786,247.882 150.295 C 247.787 149.803,247.711 150.300,247.714 151.400 M301.693 151.600 C 301.693 152.370,301.775 152.685,301.876 152.300 C 301.976 151.915,301.976 151.285,301.876 150.900 C 301.775 150.515,301.693 150.830,301.693 151.600 M276.000 209.400 C 275.028 210.390,274.323 211.200,274.433 211.200 C 274.543 211.200,275.428 210.390,276.400 209.400 C 277.372 208.410,278.077 207.600,277.967 207.600 C 277.857 207.600,276.972 208.410,276.000 209.400 M213.700 234.676 C 214.085 234.776,214.715 234.776,215.100 234.676 C 215.485 234.575,215.170 234.493,214.400 234.493 C 213.630 234.493,213.315 234.575,213.700 234.676 M159.293 259.200 C 159.293 259.970,159.375 260.285,159.476 259.900 C 159.576 259.515,159.576 258.885,159.476 258.500 C 159.375 258.115,159.293 258.430,159.293 259.200 M158.493 274.000 C 158.493 274.770,158.575 275.085,158.676 274.700 C 158.776 274.315,158.776 273.685,158.676 273.300 C 158.575 272.915,158.493 273.230,158.493 274.000 M105.301 296.200 C 105.305 297.080,105.387 297.393,105.483 296.895 C 105.579 296.398,105.575 295.678,105.475 295.295 C 105.375 294.913,105.296 295.320,105.301 296.200 M105.331 303.000 C 105.333 304.540,105.405 305.121,105.492 304.291 C 105.579 303.461,105.577 302.201,105.489 301.491 C 105.400 300.781,105.329 301.460,105.331 303.000 " stroke="none" fill="#d47c7c" fill-rule="evenodd"></path><path id="path4" d="M194.900 68.698 C 197.265 68.769,201.135 68.769,203.500 68.698 C 205.865 68.628,203.930 68.570,199.200 68.570 C 194.470 68.570,192.535 68.628,194.900 68.698 M182.200 69.200 C 180.839 69.444,180.779 69.492,181.800 69.520 C 182.460 69.539,183.720 69.405,184.600 69.223 C 186.693 68.790,184.602 68.770,182.200 69.200 M214.200 69.218 C 216.947 69.646,219.231 69.612,216.800 69.180 C 215.810 69.003,214.370 68.870,213.600 68.883 C 212.455 68.903,212.565 68.964,214.200 69.218 M176.400 70.000 C 175.608 70.254,175.567 70.320,176.200 70.320 C 176.640 70.320,177.450 70.176,178.000 70.000 C 178.792 69.746,178.833 69.680,178.200 69.680 C 177.760 69.680,176.950 69.824,176.400 70.000 M221.400 70.000 C 222.060 70.168,223.050 70.305,223.600 70.305 C 224.492 70.305,224.470 70.272,223.400 70.000 C 222.740 69.832,221.750 69.695,221.200 69.695 C 220.308 69.695,220.330 69.728,221.400 70.000 M231.400 71.600 C 231.840 71.789,232.560 71.938,233.000 71.932 C 233.643 71.923,233.604 71.857,232.800 71.600 C 231.432 71.162,230.381 71.162,231.400 71.600 M256.400 79.383 C 256.400 79.563,258.802 80.800,259.150 80.800 C 259.497 80.800,257.894 79.767,257.100 79.479 C 256.715 79.339,256.400 79.296,256.400 79.383 M260.400 81.379 C 260.400 81.489,260.940 81.859,261.600 82.200 C 262.260 82.541,262.800 82.731,262.800 82.621 C 262.800 82.511,262.260 82.141,261.600 81.800 C 260.940 81.459,260.400 81.269,260.400 81.379 M132.800 85.200 C 132.030 85.622,131.544 85.974,131.720 85.983 C 132.144 86.005,134.400 84.832,134.400 84.590 C 134.400 84.328,134.377 84.337,132.800 85.200 M267.261 85.373 C 267.405 85.528,268.755 86.451,270.261 87.422 C 271.782 88.403,272.429 88.702,271.716 88.094 C 270.538 87.091,266.659 84.721,267.261 85.373 M118.760 93.991 C 117.307 95.082,115.867 96.294,115.560 96.684 C 115.252 97.074,115.900 96.659,117.000 95.762 C 118.100 94.865,119.717 93.652,120.593 93.066 C 121.469 92.480,122.009 92.002,121.793 92.004 C 121.577 92.006,120.212 92.900,118.760 93.991 M276.442 92.100 C 276.538 92.155,277.603 93.100,278.808 94.200 L 281.000 96.200 279.015 94.100 C 277.923 92.945,276.858 92.000,276.648 92.000 C 276.438 92.000,276.345 92.045,276.442 92.100 M282.695 98.000 C 283.485 98.880,284.200 99.600,284.284 99.600 C 284.369 99.600,283.859 98.880,283.152 98.000 C 282.445 97.120,281.729 96.400,281.562 96.400 C 281.395 96.400,281.905 97.120,282.695 98.000 M111.611 100.189 C 110.200 101.613,109.125 102.833,109.222 102.899 C 109.320 102.966,110.556 101.801,111.969 100.310 C 115.236 96.862,114.991 96.779,111.611 100.189 M180.291 101.089 C 181.001 101.177,182.261 101.179,183.091 101.092 C 183.921 101.005,183.340 100.933,181.800 100.931 C 180.260 100.929,179.581 101.000,180.291 101.089 M193.233 100.946 C 193.325 101.026,195.110 101.188,197.200 101.306 C 199.805 101.454,200.434 101.418,199.200 101.190 C 197.390 100.857,192.923 100.674,193.233 100.946 M176.900 101.476 C 177.285 101.576,177.915 101.576,178.300 101.476 C 178.685 101.375,178.370 101.293,177.600 101.293 C 176.830 101.293,176.515 101.375,176.900 101.476 M287.196 103.300 C 288.141 104.565,288.988 105.600,289.077 105.600 C 289.365 105.600,286.889 102.172,286.172 101.577 C 285.789 101.260,286.250 102.035,287.196 103.300 M172.100 101.876 C 172.485 101.976,173.115 101.976,173.500 101.876 C 173.885 101.775,173.570 101.693,172.800 101.693 C 172.030 101.693,171.715 101.775,172.100 101.876 M165.400 102.800 C 164.311 103.077,164.293 103.107,165.200 103.125 C 165.750 103.135,166.560 102.989,167.000 102.800 C 167.986 102.376,167.066 102.376,165.400 102.800 M209.000 102.800 C 209.440 102.989,210.160 103.138,210.600 103.132 C 211.243 103.123,211.204 103.057,210.400 102.800 C 209.032 102.362,207.981 102.362,209.000 102.800 M212.400 103.582 C 212.730 103.805,213.345 103.991,213.767 103.994 C 214.790 104.002,214.471 103.773,213.000 103.444 C 212.124 103.248,211.962 103.285,212.400 103.582 M107.234 105.158 C 106.555 106.014,106.000 106.838,106.000 106.988 C 106.000 107.233,106.805 106.315,108.358 104.300 C 108.655 103.915,108.801 103.600,108.683 103.600 C 108.564 103.600,107.912 104.301,107.234 105.158 M156.400 104.818 C 155.962 105.115,156.124 105.152,157.000 104.956 C 158.471 104.627,158.790 104.398,157.767 104.406 C 157.345 104.409,156.730 104.595,156.400 104.818 M220.000 105.933 C 220.330 106.136,221.050 106.424,221.600 106.571 C 222.295 106.757,222.417 106.725,222.000 106.467 C 221.670 106.264,220.950 105.976,220.400 105.829 C 219.705 105.643,219.583 105.675,220.000 105.933 M147.800 107.414 C 146.185 108.154,147.151 108.155,148.854 107.416 C 149.594 107.094,149.930 106.839,149.600 106.848 C 149.270 106.857,148.460 107.112,147.800 107.414 M233.800 114.000 C 234.659 114.880,235.452 115.600,235.562 115.600 C 235.672 115.600,235.059 114.880,234.200 114.000 C 233.341 113.120,232.548 112.400,232.438 112.400 C 232.328 112.400,232.941 113.120,233.800 114.000 M98.649 119.415 C 98.512 119.773,98.421 120.546,98.446 121.133 C 98.480 121.932,98.570 121.798,98.804 120.600 C 99.135 118.900,99.062 118.340,98.649 119.415 M177.280 123.800 C 177.280 124.240,177.424 125.050,177.600 125.600 C 177.854 126.392,177.920 126.433,177.920 125.800 C 177.920 125.360,177.776 124.550,177.600 124.000 C 177.346 123.208,177.280 123.167,177.280 123.800 M158.600 126.800 C 157.294 128.120,156.399 129.180,156.613 129.155 C 156.995 129.110,161.491 124.400,161.151 124.400 C 161.054 124.400,159.906 125.480,158.600 126.800 M243.628 126.600 C 243.628 126.820,243.886 127.450,244.200 128.000 C 244.514 128.550,244.772 128.820,244.772 128.600 C 244.772 128.380,244.514 127.750,244.200 127.200 C 243.886 126.650,243.628 126.380,243.628 126.600 M299.256 127.600 C 299.256 127.930,299.411 128.560,299.600 129.000 C 299.817 129.504,299.944 129.578,299.944 129.200 C 299.944 128.870,299.789 128.240,299.600 127.800 C 299.383 127.296,299.256 127.222,299.256 127.600 M300.068 131.600 C 300.088 132.639,300.718 134.346,300.732 133.400 C 300.738 132.960,300.589 132.240,300.400 131.800 C 300.189 131.310,300.061 131.232,300.068 131.600 M300.895 136.400 C 300.895 136.950,301.032 137.940,301.200 138.600 C 301.472 139.670,301.505 139.692,301.505 138.800 C 301.505 138.250,301.368 137.260,301.200 136.600 C 300.928 135.530,300.895 135.508,300.895 136.400 M247.724 142.200 C 247.726 143.520,247.801 144.012,247.890 143.293 C 247.979 142.574,247.977 141.494,247.886 140.893 C 247.795 140.292,247.722 140.880,247.724 142.200 M177.484 143.600 C 177.332 144.810,177.230 146.700,177.258 147.800 C 177.294 149.259,177.403 148.825,177.659 146.200 C 178.051 142.178,177.916 140.175,177.484 143.600 M301.737 147.400 C 301.739 149.160,301.809 149.830,301.893 148.889 C 301.978 147.949,301.977 146.509,301.891 145.689 C 301.805 144.870,301.736 145.640,301.737 147.400 M248.101 148.200 C 248.105 149.080,248.187 149.393,248.283 148.895 C 248.379 148.398,248.375 147.678,248.275 147.295 C 248.175 146.913,248.096 147.320,248.101 148.200 M142.253 150.900 L 141.533 152.200 142.358 151.200 C 143.089 150.313,143.414 149.600,143.086 149.600 C 143.024 149.600,142.649 150.185,142.253 150.900 M247.734 156.000 C 247.734 157.650,247.805 158.325,247.891 157.500 C 247.978 156.675,247.978 155.325,247.891 154.500 C 247.805 153.675,247.734 154.350,247.734 156.000 M176.501 156.200 C 176.505 157.080,176.587 157.393,176.683 156.895 C 176.779 156.398,176.775 155.678,176.675 155.295 C 176.575 154.913,176.496 155.320,176.501 156.200 M301.033 157.633 C 300.883 158.766,300.841 159.774,300.939 159.872 C 301.037 159.971,301.245 159.128,301.400 158.000 C 301.555 156.872,301.598 155.864,301.494 155.761 C 301.391 155.658,301.184 156.500,301.033 157.633 M175.693 161.600 C 175.693 162.370,175.775 162.685,175.876 162.300 C 175.976 161.915,175.976 161.285,175.876 160.900 C 175.775 160.515,175.693 160.830,175.693 161.600 M246.893 164.000 C 246.893 164.770,246.975 165.085,247.076 164.700 C 247.176 164.315,247.176 163.685,247.076 163.300 C 246.975 162.915,246.893 163.230,246.893 164.000 M175.056 164.884 C 174.921 165.388,174.828 166.250,174.849 166.800 C 174.872 167.389,175.031 167.071,175.236 166.025 C 175.603 164.152,175.473 163.327,175.056 164.884 M299.429 167.029 C 299.281 167.615,299.238 168.172,299.332 168.266 C 299.427 168.360,299.624 167.958,299.771 167.371 C 299.919 166.785,299.962 166.228,299.868 166.134 C 299.773 166.040,299.576 166.442,299.429 167.029 M174.269 169.956 C 174.121 170.695,174.020 171.683,174.044 172.150 C 174.068 172.618,174.247 172.190,174.442 171.200 C 174.637 170.210,174.738 169.223,174.667 169.006 C 174.596 168.790,174.417 169.217,174.269 169.956 M173.293 176.000 C 173.293 176.770,173.375 177.085,173.476 176.700 C 173.576 176.315,173.576 175.685,173.476 175.300 C 173.375 174.915,173.293 175.230,173.293 176.000 M130.091 179.700 C 129.410 181.584,129.504 182.094,130.226 180.430 C 130.553 179.677,130.766 178.899,130.701 178.702 C 130.635 178.505,130.360 178.954,130.091 179.700 M171.693 184.800 C 171.693 185.570,171.775 185.885,171.876 185.500 C 171.976 185.115,171.976 184.485,171.876 184.100 C 171.775 183.715,171.693 184.030,171.693 184.800 M290.653 189.700 L 289.933 191.000 290.758 190.000 C 291.489 189.113,291.814 188.400,291.486 188.400 C 291.424 188.400,291.049 188.985,290.653 189.700 M236.399 191.700 C 235.810 192.504,235.713 192.784,236.145 192.433 C 236.801 191.900,237.793 190.400,237.489 190.400 C 237.413 190.400,236.922 190.985,236.399 191.700 M288.953 192.500 C 287.576 194.836,287.486 195.035,288.187 194.200 C 289.000 193.232,289.700 192.000,289.438 192.000 C 289.333 192.000,289.115 192.225,288.953 192.500 M232.985 195.700 L 231.000 197.800 233.100 195.815 C 235.051 193.971,235.383 193.600,235.085 193.600 C 235.022 193.600,234.077 194.545,232.985 195.700 M286.400 196.400 C 285.930 197.060,285.636 197.600,285.746 197.600 C 285.856 197.600,286.330 197.060,286.800 196.400 C 287.270 195.740,287.564 195.200,287.454 195.200 C 287.344 195.200,286.870 195.740,286.400 196.400 M169.050 197.650 C 168.717 199.317,169.040 199.640,169.400 198.000 C 169.552 197.309,169.593 196.659,169.491 196.558 C 169.389 196.456,169.191 196.947,169.050 197.650 M229.000 199.444 L 227.400 200.876 229.100 199.604 C 230.563 198.510,231.091 197.983,230.700 198.006 C 230.645 198.009,229.880 198.656,229.000 199.444 M283.544 200.300 C 282.393 201.689,281.906 202.400,282.104 202.400 C 282.214 202.400,282.786 201.770,283.373 201.000 C 284.463 199.571,284.595 199.032,283.544 200.300 M168.250 201.650 C 167.917 203.317,168.240 203.640,168.600 202.000 C 168.752 201.309,168.793 200.659,168.691 200.558 C 168.589 200.456,168.391 200.947,168.250 201.650 M167.450 205.250 C 167.117 206.917,167.440 207.240,167.800 205.600 C 167.952 204.909,167.993 204.259,167.891 204.158 C 167.789 204.056,167.591 204.547,167.450 205.250 M166.600 209.200 C 166.448 209.891,166.407 210.541,166.509 210.642 C 166.611 210.744,166.809 210.253,166.950 209.550 C 167.283 207.883,166.960 207.560,166.600 209.200 M205.400 209.200 C 204.293 209.482,204.277 209.509,205.200 209.547 C 205.750 209.569,206.470 209.413,206.800 209.200 C 207.481 208.760,207.129 208.760,205.400 209.200 M201.800 210.000 C 200.693 210.282,200.677 210.309,201.600 210.347 C 202.150 210.369,202.870 210.213,203.200 210.000 C 203.881 209.560,203.529 209.560,201.800 210.000 M192.600 211.600 C 191.522 211.874,191.502 211.906,192.400 211.913 C 192.950 211.917,193.850 211.776,194.400 211.600 C 195.744 211.169,194.292 211.169,192.600 211.600 M165.829 213.029 C 165.681 213.615,165.638 214.172,165.732 214.266 C 165.827 214.360,166.024 213.958,166.171 213.371 C 166.319 212.785,166.362 212.228,166.268 212.134 C 166.173 212.040,165.976 212.442,165.829 213.029 M183.500 213.829 C 182.895 214.157,182.400 214.516,182.400 214.627 C 182.400 214.738,182.794 214.617,183.277 214.359 C 183.759 214.101,184.614 213.750,185.177 213.579 C 185.977 213.336,186.026 213.265,185.400 213.250 C 184.960 213.240,184.105 213.501,183.500 213.829 M165.029 216.629 C 164.881 217.215,164.838 217.772,164.932 217.866 C 165.027 217.960,165.224 217.558,165.371 216.971 C 165.519 216.385,165.562 215.828,165.468 215.734 C 165.373 215.640,165.176 216.042,165.029 216.629 M180.114 219.800 C 180.117 220.900,180.195 221.303,180.287 220.695 C 180.379 220.086,180.377 219.186,180.282 218.695 C 180.187 218.203,180.111 218.700,180.114 219.800 M264.554 219.268 C 263.064 220.390,262.400 221.031,263.200 220.576 C 264.717 219.713,266.472 218.400,266.110 218.400 C 265.889 218.400,265.189 218.791,264.554 219.268 M164.200 220.800 C 164.048 221.491,164.007 222.141,164.109 222.242 C 164.211 222.344,164.409 221.853,164.550 221.150 C 164.883 219.483,164.560 219.160,164.200 220.800 M117.429 221.029 C 117.281 221.615,117.238 222.172,117.332 222.266 C 117.427 222.360,117.624 221.958,117.771 221.371 C 117.919 220.785,117.962 220.228,117.868 220.134 C 117.773 220.040,117.576 220.442,117.429 221.029 M260.881 221.772 C 259.023 223.085,258.762 223.461,260.331 222.562 C 261.063 222.143,261.850 221.575,262.080 221.300 C 262.671 220.593,262.393 220.702,260.881 221.772 M257.200 224.036 C 256.536 224.579,256.469 224.715,257.000 224.440 C 258.305 223.766,259.028 223.212,258.600 223.215 C 258.380 223.217,257.750 223.586,257.200 224.036 M163.449 224.215 C 163.312 224.573,163.215 225.166,163.234 225.533 C 163.253 225.900,163.427 225.669,163.621 225.020 C 163.998 223.758,163.865 223.133,163.449 224.215 M181.200 224.260 C 181.200 224.500,181.875 225.406,182.700 226.272 C 183.525 227.138,183.823 227.387,183.361 226.824 C 182.900 226.261,182.225 225.355,181.861 224.811 C 181.498 224.267,181.200 224.019,181.200 224.260 M115.849 227.015 C 115.712 227.373,115.615 227.966,115.634 228.333 C 115.653 228.700,115.827 228.469,116.021 227.820 C 116.398 226.558,116.265 225.933,115.849 227.015 M162.600 228.400 C 162.448 229.091,162.407 229.741,162.509 229.842 C 162.611 229.944,162.809 229.453,162.950 228.750 C 163.283 227.083,162.960 226.760,162.600 228.400 M115.049 230.215 C 114.912 230.573,114.815 231.166,114.834 231.533 C 114.853 231.900,115.027 231.669,115.221 231.020 C 115.598 229.758,115.465 229.133,115.049 230.215 M161.849 232.215 C 161.712 232.573,161.618 233.256,161.641 233.733 C 161.667 234.281,161.803 234.086,162.010 233.203 C 162.360 231.716,162.265 231.133,161.849 232.215 M197.600 233.200 C 198.150 233.376,199.050 233.517,199.600 233.513 C 200.498 233.506,200.478 233.474,199.400 233.200 C 197.708 232.769,196.256 232.769,197.600 233.200 M230.800 233.200 C 229.443 233.486,229.437 233.495,230.600 233.507 C 231.260 233.515,232.250 233.376,232.800 233.200 C 234.112 232.780,232.796 232.780,230.800 233.200 M202.900 233.876 C 203.285 233.976,203.915 233.976,204.300 233.876 C 204.685 233.775,204.370 233.693,203.600 233.693 C 202.830 233.693,202.515 233.775,202.900 233.876 M206.105 234.287 C 206.714 234.379,207.614 234.377,208.105 234.282 C 208.597 234.187,208.100 234.111,207.000 234.114 C 205.900 234.117,205.497 234.195,206.105 234.287 M223.100 234.282 C 223.595 234.378,224.405 234.378,224.900 234.282 C 225.395 234.187,224.990 234.109,224.000 234.109 C 223.010 234.109,222.605 234.187,223.100 234.282 M161.056 236.484 C 160.921 236.988,160.827 237.760,160.846 238.200 C 160.865 238.640,161.045 238.298,161.246 237.440 C 161.636 235.778,161.470 234.940,161.056 236.484 M160.101 243.400 C 160.105 244.280,160.187 244.593,160.283 244.095 C 160.379 243.598,160.375 242.878,160.275 242.495 C 160.175 242.113,160.096 242.520,160.101 243.400 M111.649 245.400 C 111.616 245.840,111.496 246.650,111.383 247.200 L 111.177 248.200 111.606 247.219 C 111.842 246.679,111.961 245.869,111.872 245.419 C 111.713 244.621,111.707 244.621,111.649 245.400 M159.709 249.200 C 159.709 250.190,159.787 250.595,159.882 250.100 C 159.978 249.605,159.978 248.795,159.882 248.300 C 159.787 247.805,159.709 248.210,159.709 249.200 M159.342 254.600 C 159.341 256.580,159.408 257.440,159.492 256.512 C 159.576 255.584,159.577 253.964,159.495 252.912 C 159.412 251.860,159.343 252.620,159.342 254.600 M110.054 253.600 C 110.019 254.150,109.896 255.050,109.783 255.600 L 109.577 256.600 110.007 255.615 C 110.243 255.074,110.365 254.174,110.278 253.615 L 110.120 252.600 110.054 253.600 M109.249 258.200 C 109.216 258.640,109.096 259.450,108.983 260.000 L 108.777 261.000 109.206 260.019 C 109.442 259.479,109.561 258.669,109.472 258.219 C 109.313 257.421,109.307 257.421,109.249 258.200 M108.493 263.200 C 108.493 263.970,108.575 264.285,108.676 263.900 C 108.776 263.515,108.776 262.885,108.676 262.500 C 108.575 262.115,108.493 262.430,108.493 263.200 M158.914 263.800 C 158.917 264.900,158.995 265.303,159.087 264.695 C 159.179 264.086,159.177 263.186,159.082 262.695 C 158.987 262.203,158.911 262.700,158.914 263.800 M158.542 269.400 C 158.541 271.380,158.608 272.240,158.692 271.312 C 158.776 270.384,158.777 268.764,158.695 267.712 C 158.612 266.660,158.543 267.420,158.542 269.400 M107.654 268.800 C 107.619 269.350,107.496 270.250,107.383 270.800 L 107.177 271.800 107.607 270.815 C 107.843 270.274,107.965 269.374,107.878 268.815 L 107.720 267.800 107.654 268.800 M106.646 276.246 C 106.500 277.493,106.459 278.593,106.557 278.690 C 106.654 278.788,106.861 277.854,107.015 276.615 C 107.170 275.377,107.210 274.277,107.105 274.171 C 106.999 274.066,106.793 274.999,106.646 276.246 M158.114 279.000 C 158.117 280.100,158.195 280.503,158.287 279.895 C 158.379 279.286,158.377 278.386,158.282 277.895 C 158.187 277.403,158.111 277.900,158.114 279.000 M157.746 285.400 C 157.747 287.600,157.814 288.449,157.895 287.287 C 157.976 286.124,157.976 284.324,157.893 283.287 C 157.811 282.249,157.745 283.200,157.746 285.400 M105.848 285.549 C 105.692 287.610,105.645 289.378,105.744 289.477 C 105.995 289.728,106.529 282.988,106.310 282.334 C 106.212 282.040,106.004 283.487,105.848 285.549 M157.320 293.600 C 157.320 294.810,157.395 295.305,157.487 294.700 C 157.578 294.095,157.578 293.105,157.487 292.500 C 157.395 291.895,157.320 292.390,157.320 293.600 M156.946 300.200 C 156.947 302.400,157.014 303.249,157.095 302.087 C 157.176 300.924,157.176 299.124,157.093 298.087 C 157.011 297.049,156.945 298.000,156.946 300.200 M105.301 299.000 C 105.305 299.880,105.387 300.193,105.483 299.695 C 105.579 299.198,105.575 298.478,105.475 298.095 C 105.375 297.713,105.296 298.120,105.301 299.000 M156.514 308.200 C 156.517 309.300,156.595 309.703,156.687 309.095 C 156.779 308.486,156.777 307.586,156.682 307.095 C 156.587 306.603,156.511 307.100,156.514 308.200 M105.691 311.800 C 105.680 312.680,105.810 314.300,105.982 315.400 C 106.231 317.003,106.296 317.122,106.307 316.000 C 106.315 315.230,106.184 313.610,106.017 312.400 C 105.752 310.484,105.710 310.407,105.691 311.800 M156.114 313.800 C 156.117 314.900,156.195 315.303,156.287 314.695 C 156.379 314.086,156.377 313.186,156.282 312.695 C 156.187 312.203,156.111 312.700,156.114 313.800 M106.673 321.600 C 106.804 322.590,106.976 323.475,107.056 323.567 C 107.357 323.914,107.128 321.364,106.790 320.600 C 106.553 320.066,106.514 320.398,106.673 321.600 M151.796 322.710 C 150.914 323.530,149.564 324.707,148.796 325.326 C 147.616 326.278,147.687 326.256,149.258 325.188 C 150.912 324.063,154.039 321.184,153.578 321.210 C 153.480 321.216,152.678 321.891,151.796 322.710 M108.800 328.125 C 108.800 328.194,109.385 328.779,110.100 329.425 L 111.400 330.600 110.225 329.300 C 109.130 328.088,108.800 327.816,108.800 328.125 M139.400 329.200 C 138.896 329.417,138.822 329.544,139.200 329.544 C 139.530 329.544,140.160 329.389,140.600 329.200 C 141.104 328.983,141.178 328.856,140.800 328.856 C 140.470 328.856,139.840 329.011,139.400 329.200 M136.000 330.000 C 135.205 330.514,136.204 330.514,137.400 330.000 L 138.200 329.656 137.400 329.634 C 136.960 329.622,136.330 329.787,136.000 330.000 M131.400 330.819 C 130.842 331.071,131.085 331.107,132.200 330.938 C 133.080 330.804,133.875 330.628,133.967 330.547 C 134.310 330.244,132.168 330.471,131.400 330.819 M114.728 331.672 C 115.588 332.020,122.330 332.004,125.200 331.647 C 126.587 331.475,124.935 331.379,120.728 331.387 C 117.058 331.394,114.358 331.522,114.728 331.672 " stroke="none" fill="#d48484" fill-rule="evenodd"></path></g></svg>